<svg width="165" height="21" viewBox="0 0 165 21" fill="none" xmlns="http://www.w3.org/2000/svg">
<path fill-rule="evenodd" clip-rule="evenodd" d="M165 19L115 19L115 11L165 11L165 19Z" fill="#41B3A4"/>
<path d="M9.20215 12.4316C9.20215 13.1934 9.01758 13.8555 8.64844 14.418C8.2793 14.9805 7.74023 15.4141 7.03125 15.7188C6.32812 16.0234 5.47266 16.1758 4.46484 16.1758C4.01953 16.1758 3.58301 16.1465 3.15527 16.0879C2.7334 16.0293 2.32617 15.9443 1.93359 15.833C1.54688 15.7158 1.17773 15.5723 0.826172 15.4023V12.8711C1.43555 13.1406 2.06836 13.3838 2.72461 13.6006C3.38086 13.8174 4.03125 13.9258 4.67578 13.9258C5.12109 13.9258 5.47852 13.8672 5.74805 13.75C6.02344 13.6328 6.22266 13.4717 6.3457 13.2666C6.46875 13.0615 6.53027 12.8271 6.53027 12.5635C6.53027 12.2412 6.42188 11.9658 6.20508 11.7373C5.98828 11.5088 5.68945 11.2949 5.30859 11.0957C4.93359 10.8965 4.50879 10.6826 4.03418 10.4541C3.73535 10.3135 3.41016 10.1436 3.05859 9.94434C2.70703 9.73926 2.37305 9.49023 2.05664 9.19727C1.74023 8.9043 1.47949 8.5498 1.27441 8.13379C1.0752 7.71191 0.975586 7.20801 0.975586 6.62207C0.975586 5.85449 1.15137 5.19824 1.50293 4.65332C1.85449 4.1084 2.35547 3.69238 3.00586 3.40527C3.66211 3.1123 4.43555 2.96582 5.32617 2.96582C5.99414 2.96582 6.62988 3.04492 7.2334 3.20312C7.84277 3.35547 8.47852 3.57813 9.14062 3.87109L8.26172 5.98926C7.66992 5.74902 7.13965 5.56445 6.6709 5.43555C6.20215 5.30078 5.72461 5.2334 5.23828 5.2334C4.89844 5.2334 4.6084 5.28906 4.36816 5.40039C4.12793 5.50586 3.94629 5.6582 3.82324 5.85742C3.7002 6.05078 3.63867 6.27637 3.63867 6.53418C3.63867 6.83887 3.72656 7.09668 3.90234 7.30762C4.08398 7.5127 4.35352 7.71191 4.71094 7.90527C5.07422 8.09863 5.52539 8.32422 6.06445 8.58203C6.7207 8.89258 7.28027 9.21777 7.74316 9.55762C8.21191 9.8916 8.57227 10.2871 8.82422 10.7441C9.07617 11.1953 9.20215 11.7578 9.20215 12.4316ZM14.001 6.17383V16H11.3203V6.17383H14.001ZM12.665 2.32422C13.0635 2.32422 13.4062 2.41797 13.6934 2.60547C13.9805 2.78711 14.124 3.12988 14.124 3.63379C14.124 4.13184 13.9805 4.47754 13.6934 4.6709C13.4062 4.8584 13.0635 4.95215 12.665 4.95215C12.2607 4.95215 11.915 4.8584 11.6279 4.6709C11.3467 4.47754 11.2061 4.13184 11.2061 3.63379C11.2061 3.12988 11.3467 2.78711 11.6279 2.60547C11.915 2.41797 12.2607 2.32422 12.665 2.32422ZM19.6963 20.3242C18.3252 20.3242 17.2764 20.084 16.5498 19.6035C15.8291 19.1289 15.4688 18.4609 15.4688 17.5996C15.4688 17.0078 15.6533 16.5127 16.0225 16.1143C16.3916 15.7158 16.9336 15.4316 17.6484 15.2617C17.373 15.1445 17.1328 14.9541 16.9277 14.6904C16.7227 14.4209 16.6201 14.1367 16.6201 13.8379C16.6201 13.4629 16.7285 13.1523 16.9453 12.9062C17.1621 12.6543 17.4756 12.4082 17.8857 12.168C17.3701 11.9453 16.96 11.5879 16.6553 11.0957C16.3564 10.6035 16.207 10.0234 16.207 9.35547C16.207 8.64062 16.3623 8.03418 16.6729 7.53613C16.9893 7.03223 17.4463 6.64844 18.0439 6.38477C18.6475 6.12109 19.3799 5.98926 20.2412 5.98926C20.4229 5.98926 20.6338 6.00098 20.874 6.02441C21.1143 6.04785 21.334 6.07422 21.5332 6.10352C21.7383 6.13281 21.876 6.15625 21.9463 6.17383H25.374V7.53613L23.8359 7.93164C23.9766 8.14844 24.082 8.37988 24.1523 8.62598C24.2227 8.87207 24.2578 9.13281 24.2578 9.4082C24.2578 10.4629 23.8887 11.2861 23.1504 11.8779C22.418 12.4639 21.3984 12.7568 20.0918 12.7568C19.7812 12.7393 19.4883 12.7158 19.2129 12.6865C19.0781 12.792 18.9756 12.9033 18.9053 13.0205C18.835 13.1377 18.7998 13.2607 18.7998 13.3896C18.7998 13.5186 18.8525 13.627 18.958 13.7148C19.0693 13.7969 19.2334 13.8613 19.4502 13.9082C19.6729 13.9492 19.9482 13.9697 20.2764 13.9697H21.9463C23.0244 13.9697 23.8447 14.2012 24.4072 14.6641C24.9756 15.127 25.2598 15.8066 25.2598 16.7031C25.2598 17.8516 24.7793 18.7422 23.8184 19.375C22.8633 20.0078 21.4893 20.3242 19.6963 20.3242ZM19.8105 18.5752C20.4492 18.5752 20.9971 18.5137 21.4541 18.3906C21.917 18.2734 22.2715 18.1035 22.5176 17.8809C22.7637 17.6641 22.8867 17.4033 22.8867 17.0986C22.8867 16.8525 22.8135 16.6562 22.667 16.5098C22.5264 16.3691 22.3096 16.2695 22.0166 16.2109C21.7295 16.1523 21.3604 16.123 20.9092 16.123H19.5205C19.1924 16.123 18.8965 16.1758 18.6328 16.2812C18.375 16.3867 18.1699 16.5332 18.0176 16.7207C17.8652 16.9141 17.7891 17.1367 17.7891 17.3887C17.7891 17.7578 17.9648 18.0479 18.3164 18.2588C18.6738 18.4697 19.1719 18.5752 19.8105 18.5752ZM20.2412 11.1221C20.7451 11.1221 21.1143 10.9668 21.3486 10.6562C21.583 10.3457 21.7002 9.92383 21.7002 9.39062C21.7002 8.79883 21.5771 8.35645 21.3311 8.06348C21.0908 7.76465 20.7275 7.61523 20.2412 7.61523C19.749 7.61523 19.3799 7.76465 19.1338 8.06348C18.8877 8.35645 18.7646 8.79883 18.7646 9.39062C18.7646 9.92383 18.8848 10.3457 19.125 10.6562C19.3711 10.9668 19.7432 11.1221 20.2412 11.1221ZM32.5811 5.98926C33.6299 5.98926 34.4736 6.27637 35.1123 6.85059C35.751 7.41895 36.0703 8.33301 36.0703 9.59277V16H33.3896V10.2607C33.3896 9.55762 33.2607 9.02734 33.0029 8.66992C32.751 8.3125 32.3525 8.13379 31.8076 8.13379C30.9873 8.13379 30.4277 8.41211 30.1289 8.96875C29.8301 9.52539 29.6807 10.3281 29.6807 11.377V16H27V6.17383H29.0479L29.4082 7.43066H29.5576C29.7686 7.09082 30.0293 6.81543 30.3398 6.60449C30.6562 6.39355 31.0049 6.23828 31.3857 6.13867C31.7725 6.03906 32.1709 5.98926 32.5811 5.98926ZM52.5234 6.17383V16H50.4668L50.1064 14.7432H49.9658C49.7549 15.0771 49.4912 15.3496 49.1748 15.5605C48.8584 15.7715 48.5098 15.9268 48.1289 16.0264C47.748 16.126 47.3525 16.1758 46.9424 16.1758C46.2393 16.1758 45.627 16.0527 45.1055 15.8066C44.584 15.5547 44.1768 15.165 43.8838 14.6377C43.5967 14.1104 43.4531 13.4248 43.4531 12.5811V6.17383H46.1338V11.9131C46.1338 12.6162 46.2598 13.1465 46.5117 13.5039C46.7637 13.8613 47.165 14.04 47.7158 14.04C48.2607 14.04 48.6885 13.917 48.999 13.6709C49.3096 13.4189 49.5264 13.0527 49.6494 12.5723C49.7783 12.0859 49.8428 11.4941 49.8428 10.7969V6.17383H52.5234ZM60.8027 5.98926C61.9102 5.98926 62.8037 6.41992 63.4834 7.28125C64.1689 8.14258 64.5117 9.40527 64.5117 11.0693C64.5117 12.1826 64.3506 13.1201 64.0283 13.8818C63.7061 14.6377 63.2607 15.209 62.6924 15.5957C62.124 15.9824 61.4707 16.1758 60.7324 16.1758C60.2578 16.1758 59.8506 16.1172 59.5107 16C59.1709 15.877 58.8809 15.7217 58.6406 15.5342C58.4004 15.3408 58.1924 15.1357 58.0166 14.9189H57.876C57.9229 15.1533 57.958 15.3936 57.9814 15.6396C58.0049 15.8857 58.0166 16.126 58.0166 16.3604V20.3242H55.3359V6.17383H57.5156L57.8936 7.44824H58.0166C58.1924 7.18457 58.4062 6.94141 58.6582 6.71875C58.9102 6.49609 59.2119 6.32031 59.5635 6.19141C59.9209 6.05664 60.334 5.98926 60.8027 5.98926ZM59.9414 8.13379C59.4727 8.13379 59.1006 8.23047 58.8252 8.42383C58.5498 8.61719 58.3477 8.90723 58.2188 9.29395C58.0957 9.68066 58.0283 10.1699 58.0166 10.7617V11.0518C58.0166 11.6846 58.0752 12.2207 58.1924 12.6602C58.3154 13.0996 58.5176 13.4336 58.7988 13.6621C59.0859 13.8906 59.4785 14.0049 59.9766 14.0049C60.3867 14.0049 60.7236 13.8906 60.9873 13.6621C61.251 13.4336 61.4473 13.0996 61.5762 12.6602C61.7109 12.2148 61.7783 11.6729 61.7783 11.0342C61.7783 10.0732 61.6289 9.34961 61.3301 8.86328C61.0312 8.37695 60.5684 8.13379 59.9414 8.13379ZM79.4795 16L78.7236 12.5635C78.6826 12.3584 78.6152 12.0566 78.5215 11.6582C78.4277 11.2539 78.3252 10.8232 78.2139 10.3662C78.1084 9.90332 78.0088 9.47559 77.915 9.08301C77.8271 8.69043 77.7627 8.40332 77.7217 8.22168H77.6426C77.6016 8.40332 77.5371 8.69043 77.4492 9.08301C77.3613 9.47559 77.2617 9.90332 77.1504 10.3662C77.0449 10.8291 76.9453 11.2656 76.8516 11.6758C76.7578 12.0801 76.6875 12.3877 76.6406 12.5986L75.8496 16H72.9668L70.1719 6.17383H72.8438L73.9775 10.5244C74.0537 10.8291 74.127 11.1924 74.1973 11.6143C74.2676 12.0303 74.3291 12.4346 74.3818 12.8271C74.4404 13.2139 74.4844 13.5215 74.5137 13.75H74.584C74.5957 13.5801 74.6191 13.3545 74.6543 13.0732C74.6953 12.792 74.7393 12.502 74.7861 12.2031C74.8389 11.8984 74.8857 11.626 74.9268 11.3857C74.9736 11.1396 75.0088 10.9727 75.0322 10.8848L76.2451 6.17383H79.1982L80.3496 10.8848C80.3906 11.0547 80.4434 11.3242 80.5078 11.6934C80.5781 12.0625 80.6396 12.4434 80.6924 12.8359C80.7451 13.2227 80.7744 13.5273 80.7803 13.75H80.8506C80.874 13.5508 80.915 13.2549 80.9736 12.8623C81.0322 12.4697 81.0996 12.0596 81.1758 11.6318C81.2578 11.1982 81.3398 10.8291 81.4219 10.5244L82.5996 6.17383H85.2275L82.3975 16H79.4795ZM89.499 6.17383V16H86.8184V6.17383H89.499ZM88.1631 2.32422C88.5615 2.32422 88.9043 2.41797 89.1914 2.60547C89.4785 2.78711 89.6221 3.12988 89.6221 3.63379C89.6221 4.13184 89.4785 4.47754 89.1914 4.6709C88.9043 4.8584 88.5615 4.95215 88.1631 4.95215C87.7588 4.95215 87.4131 4.8584 87.126 4.6709C86.8447 4.47754 86.7041 4.13184 86.7041 3.63379C86.7041 3.12988 86.8447 2.78711 87.126 2.60547C87.4131 2.41797 87.7588 2.32422 88.1631 2.32422ZM96.46 14.04C96.7529 14.04 97.0371 14.0107 97.3125 13.9521C97.5938 13.8936 97.8721 13.8203 98.1475 13.7324V15.7275C97.8604 15.8564 97.5029 15.9619 97.0752 16.0439C96.6533 16.1318 96.1904 16.1758 95.6865 16.1758C95.1006 16.1758 94.5732 16.082 94.1045 15.8945C93.6416 15.7012 93.2754 15.3701 93.0059 14.9014C92.7422 14.4268 92.6104 13.7676 92.6104 12.9238V8.18652H91.3271V7.05273L92.8037 6.15625L93.5771 4.08203H95.291V6.17383H98.042V8.18652H95.291V12.9238C95.291 13.2988 95.3965 13.5801 95.6074 13.7676C95.8242 13.9492 96.1084 14.04 96.46 14.04ZM102.823 2.32422V5.11035C102.823 5.59668 102.806 6.05957 102.771 6.49902C102.741 6.93848 102.718 7.24902 102.7 7.43066H102.841C103.052 7.09082 103.301 6.81543 103.588 6.60449C103.881 6.39355 104.203 6.23828 104.555 6.13867C104.906 6.03906 105.284 5.98926 105.688 5.98926C106.397 5.98926 107.016 6.11523 107.543 6.36719C108.07 6.61328 108.48 7.00293 108.773 7.53613C109.066 8.06348 109.213 8.74902 109.213 9.59277V16H106.532V10.2607C106.532 9.55762 106.403 9.02734 106.146 8.66992C105.888 8.3125 105.489 8.13379 104.95 8.13379C104.411 8.13379 103.986 8.25977 103.676 8.51172C103.365 8.75781 103.146 9.12402 103.017 9.61035C102.888 10.0908 102.823 10.6797 102.823 11.377V16H100.143V2.32422H102.823ZM124.26 16H116.859V3.15039H124.26V5.38281H119.584V8.2041H123.935V10.4365H119.584V13.75H124.26V16ZM138.278 5.98926C139.392 5.98926 140.232 6.27637 140.801 6.85059C141.375 7.41895 141.662 8.33301 141.662 9.59277V16H138.973V10.2607C138.973 9.55762 138.853 9.02734 138.612 8.66992C138.372 8.3125 138 8.13379 137.496 8.13379C136.787 8.13379 136.283 8.38867 135.984 8.89844C135.686 9.40234 135.536 10.126 135.536 11.0693V16H132.855V10.2607C132.855 9.79199 132.803 9.39941 132.697 9.08301C132.592 8.7666 132.431 8.5293 132.214 8.37109C131.997 8.21289 131.719 8.13379 131.379 8.13379C130.881 8.13379 130.488 8.25977 130.201 8.51172C129.92 8.75781 129.718 9.12402 129.595 9.61035C129.478 10.0908 129.419 10.6797 129.419 11.377V16H126.738V6.17383H128.786L129.146 7.43066H129.296C129.495 7.09082 129.744 6.81543 130.043 6.60449C130.348 6.39355 130.682 6.23828 131.045 6.13867C131.408 6.03906 131.777 5.98926 132.152 5.98926C132.873 5.98926 133.482 6.10645 133.98 6.34082C134.484 6.5752 134.871 6.93848 135.141 7.43066H135.378C135.671 6.92676 136.084 6.56055 136.617 6.33203C137.156 6.10352 137.71 5.98926 138.278 5.98926ZM148.447 5.97168C149.766 5.97168 150.776 6.25879 151.479 6.83301C152.183 7.40723 152.534 8.28027 152.534 9.45215V16H150.662L150.144 14.6641H150.073C149.792 15.0156 149.505 15.3027 149.212 15.5254C148.919 15.748 148.582 15.9121 148.201 16.0176C147.82 16.123 147.357 16.1758 146.812 16.1758C146.232 16.1758 145.711 16.0645 145.248 15.8418C144.791 15.6191 144.431 15.2793 144.167 14.8223C143.903 14.3594 143.771 13.7734 143.771 13.0645C143.771 12.0215 144.138 11.2539 144.87 10.7617C145.603 10.2637 146.701 9.98828 148.166 9.93555L149.871 9.88281V9.45215C149.871 8.93652 149.736 8.55859 149.467 8.31836C149.197 8.07812 148.822 7.95801 148.342 7.95801C147.867 7.95801 147.401 8.02539 146.944 8.16016C146.487 8.29492 146.03 8.46484 145.573 8.66992L144.686 6.85938C145.207 6.58398 145.79 6.36719 146.435 6.20898C147.085 6.05078 147.756 5.97168 148.447 5.97168ZM149.871 11.4473L148.834 11.4824C147.967 11.5059 147.363 11.6611 147.023 11.9482C146.689 12.2354 146.522 12.6133 146.522 13.082C146.522 13.4922 146.643 13.7852 146.883 13.9609C147.123 14.1309 147.437 14.2158 147.823 14.2158C148.397 14.2158 148.881 14.0459 149.273 13.7061C149.672 13.3662 149.871 12.8828 149.871 12.2559V11.4473ZM157.983 6.17383V16H155.303V6.17383H157.983ZM156.647 2.32422C157.046 2.32422 157.389 2.41797 157.676 2.60547C157.963 2.78711 158.106 3.12988 158.106 3.63379C158.106 4.13184 157.963 4.47754 157.676 4.6709C157.389 4.8584 157.046 4.95215 156.647 4.95215C156.243 4.95215 155.897 4.8584 155.61 4.6709C155.329 4.47754 155.188 4.13184 155.188 3.63379C155.188 3.12988 155.329 2.78711 155.61 2.60547C155.897 2.41797 156.243 2.32422 156.647 2.32422ZM163.485 16H160.805V2.32422H163.485V16Z" fill="black"/>
</svg>
