<svg width="141" height="21" viewBox="0 0 141 21" fill="none" xmlns="http://www.w3.org/2000/svg">
<path fill-rule="evenodd" clip-rule="evenodd" d="M56 21L-6.99382e-07 21L0 13L56 13L56 21Z" fill="#58C4B6"/>
<path d="M2.61719 16V3.15039H5.3418V13.75H10.5537V16H2.61719ZM21.5137 11.0693C21.5137 11.8896 21.4023 12.6162 21.1797 13.249C20.9629 13.8818 20.6436 14.418 20.2217 14.8574C19.8057 15.291 19.3018 15.6191 18.71 15.8418C18.124 16.0645 17.4619 16.1758 16.7236 16.1758C16.0322 16.1758 15.3965 16.0645 14.8164 15.8418C14.2422 15.6191 13.7412 15.291 13.3135 14.8574C12.8916 14.418 12.5635 13.8818 12.3291 13.249C12.1006 12.6162 11.9863 11.8896 11.9863 11.0693C11.9863 9.97949 12.1797 9.05664 12.5664 8.30078C12.9531 7.54492 13.5039 6.9707 14.2188 6.57812C14.9336 6.18555 15.7861 5.98926 16.7764 5.98926C17.6963 5.98926 18.5107 6.18555 19.2197 6.57812C19.9346 6.9707 20.4941 7.54492 20.8984 8.30078C21.3086 9.05664 21.5137 9.97949 21.5137 11.0693ZM14.7197 11.0693C14.7197 11.7139 14.79 12.2559 14.9307 12.6953C15.0713 13.1348 15.291 13.4658 15.5898 13.6885C15.8887 13.9111 16.2783 14.0225 16.7588 14.0225C17.2334 14.0225 17.6172 13.9111 17.9102 13.6885C18.209 13.4658 18.4258 13.1348 18.5605 12.6953C18.7012 12.2559 18.7715 11.7139 18.7715 11.0693C18.7715 10.4189 18.7012 9.87988 18.5605 9.45215C18.4258 9.01855 18.209 8.69336 17.9102 8.47656C17.6113 8.25977 17.2217 8.15137 16.7412 8.15137C16.0322 8.15137 15.5166 8.39453 15.1943 8.88086C14.8779 9.36719 14.7197 10.0967 14.7197 11.0693ZM26.6025 20.3242C25.2314 20.3242 24.1826 20.084 23.4561 19.6035C22.7354 19.1289 22.375 18.4609 22.375 17.5996C22.375 17.0078 22.5596 16.5127 22.9287 16.1143C23.2979 15.7158 23.8398 15.4316 24.5547 15.2617C24.2793 15.1445 24.0391 14.9541 23.834 14.6904C23.6289 14.4209 23.5264 14.1367 23.5264 13.8379C23.5264 13.4629 23.6348 13.1523 23.8516 12.9062C24.0684 12.6543 24.3818 12.4082 24.792 12.168C24.2764 11.9453 23.8662 11.5879 23.5615 11.0957C23.2627 10.6035 23.1133 10.0234 23.1133 9.35547C23.1133 8.64062 23.2686 8.03418 23.5791 7.53613C23.8955 7.03223 24.3525 6.64844 24.9502 6.38477C25.5537 6.12109 26.2861 5.98926 27.1475 5.98926C27.3291 5.98926 27.54 6.00098 27.7803 6.02441C28.0205 6.04785 28.2402 6.07422 28.4395 6.10352C28.6445 6.13281 28.7822 6.15625 28.8525 6.17383H32.2803V7.53613L30.7422 7.93164C30.8828 8.14844 30.9883 8.37988 31.0586 8.62598C31.1289 8.87207 31.1641 9.13281 31.1641 9.4082C31.1641 10.4629 30.7949 11.2861 30.0566 11.8779C29.3242 12.4639 28.3047 12.7568 26.998 12.7568C26.6875 12.7393 26.3945 12.7158 26.1191 12.6865C25.9844 12.792 25.8818 12.9033 25.8115 13.0205C25.7412 13.1377 25.7061 13.2607 25.7061 13.3896C25.7061 13.5186 25.7588 13.627 25.8643 13.7148C25.9756 13.7969 26.1396 13.8613 26.3564 13.9082C26.5791 13.9492 26.8545 13.9697 27.1826 13.9697H28.8525C29.9307 13.9697 30.751 14.2012 31.3135 14.6641C31.8818 15.127 32.166 15.8066 32.166 16.7031C32.166 17.8516 31.6855 18.7422 30.7246 19.375C29.7695 20.0078 28.3955 20.3242 26.6025 20.3242ZM26.7168 18.5752C27.3555 18.5752 27.9033 18.5137 28.3604 18.3906C28.8232 18.2734 29.1777 18.1035 29.4238 17.8809C29.6699 17.6641 29.793 17.4033 29.793 17.0986C29.793 16.8525 29.7197 16.6562 29.5732 16.5098C29.4326 16.3691 29.2158 16.2695 28.9229 16.2109C28.6357 16.1523 28.2666 16.123 27.8154 16.123H26.4268C26.0986 16.123 25.8027 16.1758 25.5391 16.2812C25.2812 16.3867 25.0762 16.5332 24.9238 16.7207C24.7715 16.9141 24.6953 17.1367 24.6953 17.3887C24.6953 17.7578 24.8711 18.0479 25.2227 18.2588C25.5801 18.4697 26.0781 18.5752 26.7168 18.5752ZM27.1475 11.1221C27.6514 11.1221 28.0205 10.9668 28.2549 10.6562C28.4893 10.3457 28.6064 9.92383 28.6064 9.39062C28.6064 8.79883 28.4834 8.35645 28.2373 8.06348C27.9971 7.76465 27.6338 7.61523 27.1475 7.61523C26.6553 7.61523 26.2861 7.76465 26.04 8.06348C25.7939 8.35645 25.6709 8.79883 25.6709 9.39062C25.6709 9.92383 25.791 10.3457 26.0312 10.6562C26.2773 10.9668 26.6494 11.1221 27.1475 11.1221ZM41.2627 6.17383V16H38.582V6.17383H41.2627ZM39.9268 2.32422C40.3252 2.32422 40.668 2.41797 40.9551 2.60547C41.2422 2.78711 41.3857 3.12988 41.3857 3.63379C41.3857 4.13184 41.2422 4.47754 40.9551 4.6709C40.668 4.8584 40.3252 4.95215 39.9268 4.95215C39.5225 4.95215 39.1768 4.8584 38.8896 4.6709C38.6084 4.47754 38.4678 4.13184 38.4678 3.63379C38.4678 3.12988 38.6084 2.78711 38.8896 2.60547C39.1768 2.41797 39.5225 2.32422 39.9268 2.32422ZM49.665 5.98926C50.7139 5.98926 51.5576 6.27637 52.1963 6.85059C52.835 7.41895 53.1543 8.33301 53.1543 9.59277V16H50.4736V10.2607C50.4736 9.55762 50.3447 9.02734 50.0869 8.66992C49.835 8.3125 49.4365 8.13379 48.8916 8.13379C48.0713 8.13379 47.5117 8.41211 47.2129 8.96875C46.9141 9.52539 46.7646 10.3281 46.7646 11.377V16H44.084V6.17383H46.1318L46.4922 7.43066H46.6416C46.8525 7.09082 47.1133 6.81543 47.4238 6.60449C47.7402 6.39355 48.0889 6.23828 48.4697 6.13867C48.8564 6.03906 49.2549 5.98926 49.665 5.98926ZM68.667 16L67.9111 12.5635C67.8701 12.3584 67.8027 12.0566 67.709 11.6582C67.6152 11.2539 67.5127 10.8232 67.4014 10.3662C67.2959 9.90332 67.1963 9.47559 67.1025 9.08301C67.0146 8.69043 66.9502 8.40332 66.9092 8.22168H66.8301C66.7891 8.40332 66.7246 8.69043 66.6367 9.08301C66.5488 9.47559 66.4492 9.90332 66.3379 10.3662C66.2324 10.8291 66.1328 11.2656 66.0391 11.6758C65.9453 12.0801 65.875 12.3877 65.8281 12.5986L65.0371 16H62.1543L59.3594 6.17383H62.0312L63.165 10.5244C63.2412 10.8291 63.3145 11.1924 63.3848 11.6143C63.4551 12.0303 63.5166 12.4346 63.5693 12.8271C63.6279 13.2139 63.6719 13.5215 63.7012 13.75H63.7715C63.7832 13.5801 63.8066 13.3545 63.8418 13.0732C63.8828 12.792 63.9268 12.502 63.9736 12.2031C64.0264 11.8984 64.0732 11.626 64.1143 11.3857C64.1611 11.1396 64.1963 10.9727 64.2197 10.8848L65.4326 6.17383H68.3857L69.5371 10.8848C69.5781 11.0547 69.6309 11.3242 69.6953 11.6934C69.7656 12.0625 69.8271 12.4434 69.8799 12.8359C69.9326 13.2227 69.9619 13.5273 69.9678 13.75H70.0381C70.0615 13.5508 70.1025 13.2549 70.1611 12.8623C70.2197 12.4697 70.2871 12.0596 70.3633 11.6318C70.4453 11.1982 70.5273 10.8291 70.6094 10.5244L71.7871 6.17383H74.415L71.585 16H68.667ZM78.6865 6.17383V16H76.0059V6.17383H78.6865ZM77.3506 2.32422C77.749 2.32422 78.0918 2.41797 78.3789 2.60547C78.666 2.78711 78.8096 3.12988 78.8096 3.63379C78.8096 4.13184 78.666 4.47754 78.3789 4.6709C78.0918 4.8584 77.749 4.95215 77.3506 4.95215C76.9463 4.95215 76.6006 4.8584 76.3135 4.6709C76.0322 4.47754 75.8916 4.13184 75.8916 3.63379C75.8916 3.12988 76.0322 2.78711 76.3135 2.60547C76.6006 2.41797 76.9463 2.32422 77.3506 2.32422ZM85.6475 14.04C85.9404 14.04 86.2246 14.0107 86.5 13.9521C86.7812 13.8936 87.0596 13.8203 87.335 13.7324V15.7275C87.0479 15.8564 86.6904 15.9619 86.2627 16.0439C85.8408 16.1318 85.3779 16.1758 84.874 16.1758C84.2881 16.1758 83.7607 16.082 83.292 15.8945C82.8291 15.7012 82.4629 15.3701 82.1934 14.9014C81.9297 14.4268 81.7979 13.7676 81.7979 12.9238V8.18652H80.5146V7.05273L81.9912 6.15625L82.7646 4.08203H84.4785V6.17383H87.2295V8.18652H84.4785V12.9238C84.4785 13.2988 84.584 13.5801 84.7949 13.7676C85.0117 13.9492 85.2959 14.04 85.6475 14.04ZM92.0107 2.32422V5.11035C92.0107 5.59668 91.9932 6.05957 91.958 6.49902C91.9287 6.93848 91.9053 7.24902 91.8877 7.43066H92.0283C92.2393 7.09082 92.4883 6.81543 92.7754 6.60449C93.0684 6.39355 93.3906 6.23828 93.7422 6.13867C94.0938 6.03906 94.4717 5.98926 94.876 5.98926C95.585 5.98926 96.2031 6.11523 96.7305 6.36719C97.2578 6.61328 97.668 7.00293 97.9609 7.53613C98.2539 8.06348 98.4004 8.74902 98.4004 9.59277V16H95.7197V10.2607C95.7197 9.55762 95.5908 9.02734 95.333 8.66992C95.0752 8.3125 94.6768 8.13379 94.1377 8.13379C93.5986 8.13379 93.1738 8.25977 92.8633 8.51172C92.5527 8.75781 92.333 9.12402 92.2041 9.61035C92.0752 10.0908 92.0107 10.6797 92.0107 11.377V16H89.3301V2.32422H92.0107ZM117.71 9.55762C117.71 10.5479 117.587 11.4502 117.341 12.2646C117.095 13.0732 116.72 13.7705 116.216 14.3564C115.718 14.9424 115.085 15.3936 114.317 15.71C113.55 16.0205 112.642 16.1758 111.593 16.1758C110.544 16.1758 109.636 16.0205 108.868 15.71C108.101 15.3936 107.465 14.9424 106.961 14.3564C106.463 13.7705 106.091 13.0703 105.845 12.2559C105.599 11.4414 105.476 10.5361 105.476 9.54004C105.476 8.20996 105.692 7.05273 106.126 6.06836C106.565 5.07812 107.239 4.31055 108.147 3.76562C109.056 3.2207 110.21 2.94824 111.61 2.94824C113.005 2.94824 114.15 3.2207 115.047 3.76562C115.949 4.31055 116.617 5.07812 117.051 6.06836C117.49 7.05859 117.71 8.22168 117.71 9.55762ZM108.332 9.55762C108.332 10.4541 108.443 11.2275 108.666 11.8779C108.895 12.5225 109.249 13.0205 109.729 13.3721C110.21 13.7178 110.831 13.8906 111.593 13.8906C112.366 13.8906 112.993 13.7178 113.474 13.3721C113.954 13.0205 114.303 12.5225 114.52 11.8779C114.742 11.2275 114.854 10.4541 114.854 9.55762C114.854 8.20996 114.602 7.14941 114.098 6.37598C113.594 5.60254 112.765 5.21582 111.61 5.21582C110.843 5.21582 110.216 5.3916 109.729 5.74316C109.249 6.08887 108.895 6.58691 108.666 7.2373C108.443 7.88184 108.332 8.65527 108.332 9.55762ZM125.33 16H122.605V5.41797H119.116V3.15039H128.819V5.41797H125.33V16ZM134.901 3.15039C136.56 3.15039 137.77 3.50781 138.531 4.22266C139.293 4.93164 139.674 5.91016 139.674 7.1582C139.674 7.7207 139.589 8.25977 139.419 8.77539C139.249 9.28516 138.971 9.73926 138.584 10.1377C138.203 10.5361 137.693 10.8525 137.055 11.0869C136.416 11.3154 135.628 11.4297 134.69 11.4297H133.521V16H130.797V3.15039H134.901ZM134.761 5.38281H133.521V9.19727H134.418C134.928 9.19727 135.37 9.12988 135.745 8.99512C136.12 8.86035 136.41 8.64941 136.615 8.3623C136.82 8.0752 136.923 7.70605 136.923 7.25488C136.923 6.62207 136.747 6.15332 136.396 5.84863C136.044 5.53809 135.499 5.38281 134.761 5.38281Z" fill="#000E08"/>
</svg>
