<svg width="134" height="21" viewBox="0 0 134 21" fill="none" xmlns="http://www.w3.org/2000/svg">
<path fill-rule="evenodd" clip-rule="evenodd" d="M56 21L-6.99382e-07 21L0 13L56 13L56 21Z" fill="#58C4B6"/>
<path d="M2.61719 16V3.15039H5.3418V13.75H10.5537V16H2.61719ZM21.5137 11.0693C21.5137 11.8896 21.4023 12.6162 21.1797 13.249C20.9629 13.8818 20.6436 14.418 20.2217 14.8574C19.8057 15.291 19.3018 15.6191 18.71 15.8418C18.124 16.0645 17.4619 16.1758 16.7236 16.1758C16.0322 16.1758 15.3965 16.0645 14.8164 15.8418C14.2422 15.6191 13.7412 15.291 13.3135 14.8574C12.8916 14.418 12.5635 13.8818 12.3291 13.249C12.1006 12.6162 11.9863 11.8896 11.9863 11.0693C11.9863 9.97949 12.1797 9.05664 12.5664 8.30078C12.9531 7.54492 13.5039 6.9707 14.2188 6.57812C14.9336 6.18555 15.7861 5.98926 16.7764 5.98926C17.6963 5.98926 18.5107 6.18555 19.2197 6.57812C19.9346 6.9707 20.4941 7.54492 20.8984 8.30078C21.3086 9.05664 21.5137 9.97949 21.5137 11.0693ZM14.7197 11.0693C14.7197 11.7139 14.79 12.2559 14.9307 12.6953C15.0713 13.1348 15.291 13.4658 15.5898 13.6885C15.8887 13.9111 16.2783 14.0225 16.7588 14.0225C17.2334 14.0225 17.6172 13.9111 17.9102 13.6885C18.209 13.4658 18.4258 13.1348 18.5605 12.6953C18.7012 12.2559 18.7715 11.7139 18.7715 11.0693C18.7715 10.4189 18.7012 9.87988 18.5605 9.45215C18.4258 9.01855 18.209 8.69336 17.9102 8.47656C17.6113 8.25977 17.2217 8.15137 16.7412 8.15137C16.0322 8.15137 15.5166 8.39453 15.1943 8.88086C14.8779 9.36719 14.7197 10.0967 14.7197 11.0693ZM26.6025 20.3242C25.2314 20.3242 24.1826 20.084 23.4561 19.6035C22.7354 19.1289 22.375 18.4609 22.375 17.5996C22.375 17.0078 22.5596 16.5127 22.9287 16.1143C23.2979 15.7158 23.8398 15.4316 24.5547 15.2617C24.2793 15.1445 24.0391 14.9541 23.834 14.6904C23.6289 14.4209 23.5264 14.1367 23.5264 13.8379C23.5264 13.4629 23.6348 13.1523 23.8516 12.9062C24.0684 12.6543 24.3818 12.4082 24.792 12.168C24.2764 11.9453 23.8662 11.5879 23.5615 11.0957C23.2627 10.6035 23.1133 10.0234 23.1133 9.35547C23.1133 8.64062 23.2686 8.03418 23.5791 7.53613C23.8955 7.03223 24.3525 6.64844 24.9502 6.38477C25.5537 6.12109 26.2861 5.98926 27.1475 5.98926C27.3291 5.98926 27.54 6.00098 27.7803 6.02441C28.0205 6.04785 28.2402 6.07422 28.4395 6.10352C28.6445 6.13281 28.7822 6.15625 28.8525 6.17383H32.2803V7.53613L30.7422 7.93164C30.8828 8.14844 30.9883 8.37988 31.0586 8.62598C31.1289 8.87207 31.1641 9.13281 31.1641 9.4082C31.1641 10.4629 30.7949 11.2861 30.0566 11.8779C29.3242 12.4639 28.3047 12.7568 26.998 12.7568C26.6875 12.7393 26.3945 12.7158 26.1191 12.6865C25.9844 12.792 25.8818 12.9033 25.8115 13.0205C25.7412 13.1377 25.7061 13.2607 25.7061 13.3896C25.7061 13.5186 25.7588 13.627 25.8643 13.7148C25.9756 13.7969 26.1396 13.8613 26.3564 13.9082C26.5791 13.9492 26.8545 13.9697 27.1826 13.9697H28.8525C29.9307 13.9697 30.751 14.2012 31.3135 14.6641C31.8818 15.127 32.166 15.8066 32.166 16.7031C32.166 17.8516 31.6855 18.7422 30.7246 19.375C29.7695 20.0078 28.3955 20.3242 26.6025 20.3242ZM26.7168 18.5752C27.3555 18.5752 27.9033 18.5137 28.3604 18.3906C28.8232 18.2734 29.1777 18.1035 29.4238 17.8809C29.6699 17.6641 29.793 17.4033 29.793 17.0986C29.793 16.8525 29.7197 16.6562 29.5732 16.5098C29.4326 16.3691 29.2158 16.2695 28.9229 16.2109C28.6357 16.1523 28.2666 16.123 27.8154 16.123H26.4268C26.0986 16.123 25.8027 16.1758 25.5391 16.2812C25.2812 16.3867 25.0762 16.5332 24.9238 16.7207C24.7715 16.9141 24.6953 17.1367 24.6953 17.3887C24.6953 17.7578 24.8711 18.0479 25.2227 18.2588C25.5801 18.4697 26.0781 18.5752 26.7168 18.5752ZM27.1475 11.1221C27.6514 11.1221 28.0205 10.9668 28.2549 10.6562C28.4893 10.3457 28.6064 9.92383 28.6064 9.39062C28.6064 8.79883 28.4834 8.35645 28.2373 8.06348C27.9971 7.76465 27.6338 7.61523 27.1475 7.61523C26.6553 7.61523 26.2861 7.76465 26.04 8.06348C25.7939 8.35645 25.6709 8.79883 25.6709 9.39062C25.6709 9.92383 25.791 10.3457 26.0312 10.6562C26.2773 10.9668 26.6494 11.1221 27.1475 11.1221ZM41.2627 6.17383V16H38.582V6.17383H41.2627ZM39.9268 2.32422C40.3252 2.32422 40.668 2.41797 40.9551 2.60547C41.2422 2.78711 41.3857 3.12988 41.3857 3.63379C41.3857 4.13184 41.2422 4.47754 40.9551 4.6709C40.668 4.8584 40.3252 4.95215 39.9268 4.95215C39.5225 4.95215 39.1768 4.8584 38.8896 4.6709C38.6084 4.47754 38.4678 4.13184 38.4678 3.63379C38.4678 3.12988 38.6084 2.78711 38.8896 2.60547C39.1768 2.41797 39.5225 2.32422 39.9268 2.32422ZM49.665 5.98926C50.7139 5.98926 51.5576 6.27637 52.1963 6.85059C52.835 7.41895 53.1543 8.33301 53.1543 9.59277V16H50.4736V10.2607C50.4736 9.55762 50.3447 9.02734 50.0869 8.66992C49.835 8.3125 49.4365 8.13379 48.8916 8.13379C48.0713 8.13379 47.5117 8.41211 47.2129 8.96875C46.9141 9.52539 46.7646 10.3281 46.7646 11.377V16H44.084V6.17383H46.1318L46.4922 7.43066H46.6416C46.8525 7.09082 47.1133 6.81543 47.4238 6.60449C47.7402 6.39355 48.0889 6.23828 48.4697 6.13867C48.8564 6.03906 49.2549 5.98926 49.665 5.98926ZM64.7295 14.04C65.0225 14.04 65.3066 14.0107 65.582 13.9521C65.8633 13.8936 66.1416 13.8203 66.417 13.7324V15.7275C66.1299 15.8564 65.7725 15.9619 65.3447 16.0439C64.9229 16.1318 64.46 16.1758 63.9561 16.1758C63.3701 16.1758 62.8428 16.082 62.374 15.8945C61.9111 15.7012 61.5449 15.3701 61.2754 14.9014C61.0117 14.4268 60.8799 13.7676 60.8799 12.9238V8.18652H59.5967V7.05273L61.0732 6.15625L61.8467 4.08203H63.5605V6.17383H66.3115V8.18652H63.5605V12.9238C63.5605 13.2988 63.666 13.5801 63.877 13.7676C64.0938 13.9492 64.3779 14.04 64.7295 14.04ZM77.3418 11.0693C77.3418 11.8896 77.2305 12.6162 77.0078 13.249C76.791 13.8818 76.4717 14.418 76.0498 14.8574C75.6338 15.291 75.1299 15.6191 74.5381 15.8418C73.9521 16.0645 73.29 16.1758 72.5518 16.1758C71.8604 16.1758 71.2246 16.0645 70.6445 15.8418C70.0703 15.6191 69.5693 15.291 69.1416 14.8574C68.7197 14.418 68.3916 13.8818 68.1572 13.249C67.9287 12.6162 67.8145 11.8896 67.8145 11.0693C67.8145 9.97949 68.0078 9.05664 68.3945 8.30078C68.7812 7.54492 69.332 6.9707 70.0469 6.57812C70.7617 6.18555 71.6143 5.98926 72.6045 5.98926C73.5244 5.98926 74.3389 6.18555 75.0479 6.57812C75.7627 6.9707 76.3223 7.54492 76.7266 8.30078C77.1367 9.05664 77.3418 9.97949 77.3418 11.0693ZM70.5479 11.0693C70.5479 11.7139 70.6182 12.2559 70.7588 12.6953C70.8994 13.1348 71.1191 13.4658 71.418 13.6885C71.7168 13.9111 72.1064 14.0225 72.5869 14.0225C73.0615 14.0225 73.4453 13.9111 73.7383 13.6885C74.0371 13.4658 74.2539 13.1348 74.3887 12.6953C74.5293 12.2559 74.5996 11.7139 74.5996 11.0693C74.5996 10.4189 74.5293 9.87988 74.3887 9.45215C74.2539 9.01855 74.0371 8.69336 73.7383 8.47656C73.4395 8.25977 73.0498 8.15137 72.5693 8.15137C71.8604 8.15137 71.3447 8.39453 71.0225 8.88086C70.7061 9.36719 70.5479 10.0967 70.5479 11.0693ZM89.4004 16H86.6758V5.41797H83.1865V3.15039H92.8896V5.41797H89.4004V16ZM98.6816 5.97168C100 5.97168 101.011 6.25879 101.714 6.83301C102.417 7.40723 102.769 8.28027 102.769 9.45215V16H100.896L100.378 14.6641H100.308C100.026 15.0156 99.7393 15.3027 99.4463 15.5254C99.1533 15.748 98.8164 15.9121 98.4355 16.0176C98.0547 16.123 97.5918 16.1758 97.0469 16.1758C96.4668 16.1758 95.9453 16.0645 95.4824 15.8418C95.0254 15.6191 94.665 15.2793 94.4014 14.8223C94.1377 14.3594 94.0059 13.7734 94.0059 13.0645C94.0059 12.0215 94.3721 11.2539 95.1045 10.7617C95.8369 10.2637 96.9355 9.98828 98.4004 9.93555L100.105 9.88281V9.45215C100.105 8.93652 99.9707 8.55859 99.7012 8.31836C99.4316 8.07812 99.0566 7.95801 98.5762 7.95801C98.1016 7.95801 97.6357 8.02539 97.1787 8.16016C96.7217 8.29492 96.2646 8.46484 95.8076 8.66992L94.9199 6.85938C95.4414 6.58398 96.0244 6.36719 96.6689 6.20898C97.3193 6.05078 97.9902 5.97168 98.6816 5.97168ZM100.105 11.4473L99.0684 11.4824C98.2012 11.5059 97.5977 11.6611 97.2578 11.9482C96.9238 12.2354 96.7568 12.6133 96.7568 13.082C96.7568 13.4922 96.877 13.7852 97.1172 13.9609C97.3574 14.1309 97.6709 14.2158 98.0576 14.2158C98.6318 14.2158 99.1152 14.0459 99.5078 13.7061C99.9062 13.3662 100.105 12.8828 100.105 12.2559V11.4473ZM111.004 5.98926C112.111 5.98926 113.005 6.41992 113.685 7.28125C114.37 8.14258 114.713 9.40527 114.713 11.0693C114.713 12.1826 114.552 13.1201 114.229 13.8818C113.907 14.6377 113.462 15.209 112.894 15.5957C112.325 15.9824 111.672 16.1758 110.934 16.1758C110.459 16.1758 110.052 16.1172 109.712 16C109.372 15.877 109.082 15.7217 108.842 15.5342C108.602 15.3408 108.394 15.1357 108.218 14.9189H108.077C108.124 15.1533 108.159 15.3936 108.183 15.6396C108.206 15.8857 108.218 16.126 108.218 16.3604V20.3242H105.537V6.17383H107.717L108.095 7.44824H108.218C108.394 7.18457 108.607 6.94141 108.859 6.71875C109.111 6.49609 109.413 6.32031 109.765 6.19141C110.122 6.05664 110.535 5.98926 111.004 5.98926ZM110.143 8.13379C109.674 8.13379 109.302 8.23047 109.026 8.42383C108.751 8.61719 108.549 8.90723 108.42 9.29395C108.297 9.68066 108.229 10.1699 108.218 10.7617V11.0518C108.218 11.6846 108.276 12.2207 108.394 12.6602C108.517 13.0996 108.719 13.4336 109 13.6621C109.287 13.8906 109.68 14.0049 110.178 14.0049C110.588 14.0049 110.925 13.8906 111.188 13.6621C111.452 13.4336 111.648 13.0996 111.777 12.6602C111.912 12.2148 111.979 11.6729 111.979 11.0342C111.979 10.0732 111.83 9.34961 111.531 8.86328C111.232 8.37695 110.77 8.13379 110.143 8.13379ZM117.139 16V3.15039H119.863V16H117.139ZM128.468 5.98926C129.517 5.98926 130.36 6.27637 130.999 6.85059C131.638 7.41895 131.957 8.33301 131.957 9.59277V16H129.276V10.2607C129.276 9.55762 129.147 9.02734 128.89 8.66992C128.638 8.3125 128.239 8.13379 127.694 8.13379C126.874 8.13379 126.314 8.41211 126.016 8.96875C125.717 9.52539 125.567 10.3281 125.567 11.377V16H122.887V6.17383H124.935L125.295 7.43066H125.444C125.655 7.09082 125.916 6.81543 126.227 6.60449C126.543 6.39355 126.892 6.23828 127.272 6.13867C127.659 6.03906 128.058 5.98926 128.468 5.98926Z" fill="#000E08"/>
</svg>
